<svg id="headerMedia" class="cozycube" xmlns="http://www.w3.org/2000/svg" viewBox="0 0 1080 1080"><title>a cozy cube</title><path d="M859.59,308.5,540,124a52.34,52.34,0,0,0-52.34,0L168.14,308.5A52.34,52.34,0,0,0,142,353.83v369a52.34,52.34,0,0,0,26.17,45.33L487.7,952.64a52.34,52.34,0,0,0,52.34,0L859.59,768.15a52.34,52.34,0,0,0,26.17-45.33v-369A52.34,52.34,0,0,0,859.59,308.5ZM492.15,868c0,29.21-26,26.32-51.34,11.71L207.54,745.11c-15.91-9.19-26.15-26-26.17-44.36l.25-266.91c0-19.34,20.38-30.59,37.13-20.93L465.44,556.36c15.94,9.19,27.37,24.86,27.37,43.26Z" style="fill:#F8F5EB"/><path d="M348.43,726.21c-27-1.26-59.36-28.11-65.38-54.39-2.22-9.71-1.81-19.61-1.65-32.22.32-6.09-1-15,1.28-23.77,2.2-8.59,6.52-11.78,15.4-11.34,4.54.22,8.67,1.88,12.65,3.72,14.51,6.71,26.8,16.43,37.51,28.25,3.47,3.82,7,7.82,11.15,10.75,10,7,20.57,1.41,21.37-10.78.46-7.09-2.43-13.13-6.32-18.5-24.69-34-57.28-57.42-97.64-68.84-24.77-7-42,5.71-45.93,31.09-2.39,15.24-.95,30.53-1.27,45.8a119.87,119.87,0,0,0,8.45,46.15c16.54,42.7,48.3,71.06,87.38,92.42,11.49,6.28,23.63,10.93,36.65,12.92,17.93,2.74,25.31-5.71,18.86-22.32C375.13,740.2,367,727.08,348.43,726.21Z" style="fill:#F8F5EB"/><path d="M419.92,766.25c-11.68-3.18-19.77,2.86-19.72,14.74.06,17.48,17.59,40.75,34.58,45.91,11.93,3.62,19.91-2.37,19.83-14.88C454.48,794.56,436.44,770.75,419.92,766.25Z" style="fill:#F8F5EB"/>
</svg>
